<svg xmlns="http://www.w3.org/2000/svg" width="47" height="53" viewBox="0 0 47 53">
  <defs>
    <style>
      .cls-1 {
        fill: #8863aa;
        fill-rule: evenodd;
      }
    </style>
  </defs>
  <path id="ico-quicklinks-3" class="cls-1" d="M812.8,830.063A8.285,8.285,0,0,1,818.5,822a56.811,56.811,0,0,1,7.14-1.876l8.858,19.885,8.857-19.885a56.811,56.811,0,0,1,7.14,1.876,8.285,8.285,0,0,1,5.694,8.067v7.245c0.6,0,1.2-.011,1.808-0.011v-7.234a10.078,10.078,0,0,0-6.96-9.943,53.173,53.173,0,0,0-8.767-2.158l-4.157,9.287-0.723-8.442h-5.152l-1.175,8.723-4.338-9.661a73.661,73.661,0,0,0-8.767,2.157A9.962,9.962,0,0,0,811,829.875v7.439c0.605,0.034,1.2.052,1.807,0.08v-7.331Zm20.969-9.287h1.988l0.813,9.943-2.169,4.784-2.079-4.784Zm0.723-4.69c6.688,0,11.749-10.224,11.749-16.884a11.758,11.758,0,1,0-23.5,0C822.746,805.862,827.807,816.086,834.5,816.086Zm0-27.2a10.14,10.14,0,0,1,9.4,6.848c-4.7.844-6.507-3.658-6.507-3.658a12.945,12.945,0,0,1-12.473,4.5A9.973,9.973,0,0,1,834.5,788.884Zm-9.942,9.568a14.166,14.166,0,0,0,2.8.281,14.446,14.446,0,0,0,9.67-3.752,7.114,7.114,0,0,0,7.231,2.533,10.875,10.875,0,0,1,.18,1.6c0,5.815-4.519,15.008-9.941,15.008s-9.942-9.193-9.942-15.008v-0.657Z" transform="translate(-811 -787)"/>
</svg>
