<svg xmlns="http://www.w3.org/2000/svg" width="64" height="60" viewBox="0 0 64 60">
  <defs>
    <style>
      .cls-1 {
        fill: #489386;
        fill-rule: evenodd;
      }
    </style>
  </defs>
  <path id="ico-quicklinks-5" class="cls-1" d="M1271.5,837.686a16.191,16.191,0,0,1,10.09-14.653l9.92,6.244,9.93-6.244s10.42,4.662,10.09,14.653V839c0.61,0,1.22,0,1.84,0v-1.475c-0.51-12.571-11.93-16.484-11.93-16.484l-2.42,1.5V818.62c3.75-.333,6.09-3.08,6.67-7.742l0.75-6.411c0.34-10.407-8.42-14.986-14.84-14.986-5.09,0-15.1,3.5-14.85,14.986l0.75,6.327c0.5,4.5,2.92,7.327,6.67,7.66v3.913l-2.42-1.5s-11.51,4.163-11.76,16.651v1.117c0.5-.091,1-0.194,1.51-0.272v-0.678Zm25.85-14.07-5.84,3.663-5.84-3.663v-3.58a8.493,8.493,0,0,0,5.84,2.83,8.164,8.164,0,0,0,5.84-2.83v3.58Zm2.84-29.306s5.25,4.412,4.5,10.074l-0.75,6.327c-0.42,3.414-1.83,5.5-4.17,6.078a22.963,22.963,0,0,0,3.34-12.155S1296.1,801.886,1300.19,794.31Zm-21.19,16.4-0.75-6.327c-0.33-10.074,8.84-13.154,13.26-13.154a13.67,13.67,0,0,1,7.26,2.081,13.655,13.655,0,0,1-9.59,6.577l-9.43,1.5V805.3a24.427,24.427,0,0,0,3.34,11.572C1280.25,815.956,1279.34,813.209,1279,810.711Zm2.5-5.5v-2.5l8.01-1.249a16.029,16.029,0,0,0,7.84-3.747,8.554,8.554,0,0,0,4.17,7.993c-0.25,6.91-5,15.485-10.01,15.485C1286.34,821.2,1281.5,812.21,1281.5,805.216ZM1330.37,779h-18.83a3.62,3.62,0,0,0-3.62,3.616v10.118a3.62,3.62,0,0,0,3.62,3.617h0.73v6.8l6.81-6.8h11.29a3.627,3.627,0,0,0,3.62-3.617V782.615A3.627,3.627,0,0,0,1330.37,779Zm2.17,13.734a2.168,2.168,0,0,1-2.17,2.17h-11.89l-4.77,4.764V794.9h-2.18a2.168,2.168,0,0,1-2.17-2.17V782.615a2.169,2.169,0,0,1,2.17-2.17h18.83a2.169,2.169,0,0,1,2.17,2.17v10.118h0.01Zm-11.87-6.3h1.45v1.447h-1.45v-1.447Zm2.9,0h1.45v1.447h-1.45v-1.447Zm-5.79,0h1.45v1.447h-1.45v-1.447Z" transform="translate(-1270 -779)"/>
</svg>
