<svg xmlns="http://www.w3.org/2000/svg" width="41" height="40" viewBox="0 0 41 40">
  <defs>
    <style>
      .cls-1 {
        fill: #a44991;
        fill-rule: evenodd;
      }
    </style>
  </defs>
  <path id="ico-quicklinks-2" class="cls-1" d="M621.191,813.5a2.738,2.738,0,0,0,.007-3.862l-1.458-1.464a2.7,2.7,0,0,0-3.845,0l-1.477,1.483v-8.6a2.727,2.727,0,0,0-2.715-2.728h-5.536v-1.418a0.905,0.905,0,1,0-1.81,0v1.418h-2.915v-1.418a0.905,0.905,0,1,0-1.81,0v1.418h-2.915v-1.418a0.9,0.9,0,1,0-1.8,0v1.418H592v-1.418a0.906,0.906,0,1,0-1.811,0v1.418h-6.472A2.727,2.727,0,0,0,581,801.055V836a16.23,16.23,0,0,1,1.733-.094l0.077,0V801.055a0.906,0.906,0,0,1,.906-0.909h6.466v1.418a0.905,0.905,0,1,0,1.81,0v-1.418h2.915v1.418a0.905,0.905,0,1,0,1.81,0v-1.418h2.915v1.418a0.905,0.905,0,1,0,1.81,0v-1.418h2.915v1.418a0.906,0.906,0,1,0,1.811,0v-1.418H611.7a0.906,0.906,0,0,1,.9.909V811.47l-9.309,9.355a0.885,0.885,0,0,0-.238.419l-1.38,5.422a0.926,0.926,0,0,0,.238.871,0.908,0.908,0,0,0,.866.238l5.4-1.386a0.873,0.873,0,0,0,.418-0.238l4.012-4.03v13.643q0.9,0.014,1.8.05V820.3Zm-13.7,11.186-3.679.947,0.944-3.694,12.423-12.482a0.934,0.934,0,0,1,1.284,0l1.457,1.464a0.917,0.917,0,0,1,0,1.289Zm6.927,11.133q-0.9-.036-1.8-0.05m-29.8.145-0.077,0A16.23,16.23,0,0,0,581,836m4.879-25.706H600.1a0.909,0.909,0,0,0,0-1.818H585.879A0.909,0.909,0,0,0,585.879,810.3Zm11.345,5a0.906,0.906,0,0,0-.905-0.909h-10.44a0.909,0.909,0,0,0,0,1.818h10.433A0.912,0.912,0,0,0,597.224,815.3Zm2.793,15.895a0.906,0.906,0,0,0-.905-0.909h-4.853a0.909,0.909,0,0,0,0,1.818h4.847A0.911,0.911,0,0,0,600.017,831.192Zm-7.449-9.448a0.906,0.906,0,0,0-.9-0.909h-5.784a0.909,0.909,0,0,0,0,1.818h5.778A0.911,0.911,0,0,0,592.568,821.744Z" transform="translate(-581 -796)"/>
</svg>
