<svg xmlns="http://www.w3.org/2000/svg" width="40" height="41" viewBox="0 0 40 41">
  <defs>
    <style>
      .cls-1 {
        fill: #596ba5;
        fill-rule: evenodd;
      }
    </style>
  </defs>
  <path id="ico-quicklinks-4" class="cls-1" d="M1074.78,800.678l1.54,0.113V839.1c0.51,0.022,1.02.046,1.54,0.071V817.74h4.61v21.7q0.765,0.054,1.53.113V816.185h-6.14v-17.1l-3.08-.084h-27.71l-3.07.084v40.852q0.765,0.034,1.53.064V800.7l1.54-.028Zm-26.94,15.507h26.18V803.529h-26.18v12.656Zm1.53-11.111h23.11v9.566h-23.11v-9.566h0Zm9.22,14.211h-10.75v10.834h10.75V819.285Zm-1.53,9.289h-7.69V820.83h7.69v7.744Zm4.6-8.512h12.36v1.545h-12.36v-1.545Zm0,6.967h12.36v1.545h-12.36v-1.545ZM1047.84,834h26.18v1.545h-26.18V834Z" transform="translate(-1044 -799)"/>
</svg>
