<svg xmlns="http://www.w3.org/2000/svg" width="31" height="44" viewBox="0 0 31 44">
  <defs>
    <style>
      .cls-1 {
        fill: #bc457e;
        fill-rule: evenodd;
      }
    </style>
  </defs>
  <path id="ico-quicklinks-1" class="cls-1" d="M382,842.991v-40.2A3.758,3.758,0,0,0,378.3,799H354.689A3.745,3.745,0,0,0,351,802.789v40.2L352.479,843V802.789a2.244,2.244,0,0,1,2.21-2.269h23.622a2.244,2.244,0,0,1,2.21,2.269V843Zm-27.311-27.3h23.622V803.549H354.689v12.137Zm1.47-10.617h20.664v9.1H356.159v-9.1Zm4.429,13.647H354.68v6.068h5.908v-6.068Zm-1.47,4.549h-2.95v-3.03h2.95v3.03Zm13.285,1.51h5.908v-6.069H372.4v6.069Zm1.47-4.54h2.95v3.03h-2.95v-3.03Zm-10.327,4.54h5.908v-6.069h-5.908v6.069h0Zm1.47-4.54h2.95v3.03h-2.95v-3.03h0Zm-10.327,12.887H360.6v-6.068h-5.908v6.068Zm1.47-4.549h2.95v3.03h-2.95v-3.03ZM372.4,842.22h5.908V827.054H372.4V842.22Zm1.47-13.647h2.95V840.7h-2.95V828.573Zm-10.327,4.549h5.908v-6.068h-5.908v6.068h0Zm1.47-4.549h2.95v3.03h-2.95v-3.03h0Zm-10.327,12.888h14.765v-6.069H354.689v6.069Zm1.47-4.549h11.807v3.029H356.159v-3.029Z" transform="translate(-351 -799)"/>
</svg>
